<?xml version="1.0" encoding="UTF-8"?>
<svg width="90" height="90" viewBox="0 0 90 90" fill="none" xmlns="http://www.w3.org/2000/svg">
<path fill-rule="evenodd" clip-rule="evenodd" d="M54 60V70.5C54 71.3283 54.6717 72 55.5 72H58.5C59.3283 72 60 71.3283 60 70.5V60H70.5C71.3283 60 72 59.3283 72 58.5V55.5C72 54.6717 71.3283 54 70.5 54H60C58.3432 54 56.929 54.5858 55.7574 55.7574C54.5858 56.929 54 58.3432 54 60ZM60 36H70.5C71.3283 36 72 35.3284 72 34.5V31.5C72 30.6716 71.3283 30 70.5 30H60V19.5C60 18.6716 59.3283 18 58.5 18H55.5C54.6717 18 54 18.6716 54 19.5V30C54 31.6569 54.5858 33.0711 55.7574 34.2426C56.929 35.4142 58.3432 36 60 36ZM36 30V19.5C36 18.6716 35.3284 18 34.5 18H31.5C30.6716 18 30 18.6716 30 19.5V30H19.5C18.6716 30 18 30.6716 18 31.5V34.5C18 35.3284 18.6716 36 19.5 36H30C31.6569 36 33.0711 35.4142 34.2426 34.2426C35.4142 33.0711 36 31.6569 36 30ZM30 60V70.5C30 71.3283 30.6716 72 31.5 72H34.5C35.3284 72 36 71.3283 36 70.5V60C36 58.3432 35.4142 56.929 34.2426 55.7574C33.0711 54.5858 31.6569 54 30 54H19.5C18.6716 54 18 54.6717 18 55.5V58.5C18 59.3283 18.6716 60 19.5 60H30Z" fill="white"/>
</svg>
