<?xml version="1.0" encoding="UTF-8"?>
<svg width="144" height="144" viewBox="0 0 144 144" fill="none" xmlns="http://www.w3.org/2000/svg">
<g filter="url(#filter0_d_5188_7555)">
<path fill-rule="evenodd" clip-rule="evenodd" d="M114.426 114.426C112.083 112.083 108.303 112.113 105.716 114.184C96.4762 121.578 84.7545 126 72 126C42.1766 126 18 101.823 18 72C18 42.1766 42.1766 18 72 18C101.823 18 126 42.1766 126 72C126 72.1738 125.999 72.3474 125.998 72.5208C125.966 75.8318 128.275 78.8213 131.563 79.2197C134.855 79.6188 137.875 77.2687 137.972 73.9531C137.991 73.3044 138 72.6533 138 72C138 35.5492 108.451 6 72 6C35.5492 6 6 35.5492 6 72C6 108.451 35.5492 138 72 138C88.0679 138 102.795 132.258 114.241 122.714C116.786 120.592 116.77 116.77 114.426 114.426Z" fill="url(#paint0_angular_5188_7555)" shape-rendering="crispEdges"/>
</g>
<defs>
<filter id="filter0_d_5188_7555" x="0" y="0" width="144" height="144" filterUnits="userSpaceOnUse" color-interpolation-filters="sRGB">
<feFlood flood-opacity="0" result="BackgroundImageFix"/>
<feColorMatrix in="SourceAlpha" type="matrix" values="0 0 0 0 0 0 0 0 0 0 0 0 0 0 0 0 0 0 127 0" result="hardAlpha"/>
<feOffset/>
<feGaussianBlur stdDeviation="3"/>
<feComposite in2="hardAlpha" operator="out"/>
<feColorMatrix type="matrix" values="0 0 0 0 0 0 0 0 0 0 0 0 0 0 0 0 0 0 0.12 0"/>
<feBlend mode="normal" in2="BackgroundImageFix" result="effect1_dropShadow_5188_7555"/>
<feBlend mode="normal" in="SourceGraphic" in2="effect1_dropShadow_5188_7555" result="shape"/>
</filter>
<radialGradient id="paint0_angular_5188_7555" cx="0" cy="0" r="1" gradientUnits="userSpaceOnUse" gradientTransform="translate(72 72) rotate(28.6105) scale(68.9148)">
<stop offset="0.0454813" stop-color="white" stop-opacity="0"/>
<stop offset="0.9999" stop-color="white" stop-opacity="0.95"/>
</radialGradient>
</defs>
</svg>
