<?xml version="1.0" encoding="UTF-8"?>
<svg width="144" height="144" viewBox="0 0 144 144" fill="none" xmlns="http://www.w3.org/2000/svg">
<path fill-rule="evenodd" clip-rule="evenodd" d="M56.1025 27.8616C54.4384 29.1426 54.4384 31.6521 56.1025 32.933L69.2565 43.059C71.3607 44.6788 74.4085 43.1788 74.4085 40.5233V36.0804C74.4112 36.0806 74.4139 36.0807 74.4166 36.0809C93.1786 37.3172 108.014 52.9271 108.014 72.002C108.014 91.8843 91.8962 108.002 72.014 108.002C52.1317 108.002 36.014 91.8843 36.014 72.002C36.014 62.9226 39.3751 54.6282 44.921 48.2953C45.7943 47.298 45.8011 45.7833 44.8638 44.846L40.3384 40.3205C39.4012 39.3833 37.8767 39.3793 36.9879 40.3626C29.4216 48.7335 24.814 59.8297 24.814 72.002C24.814 98.0698 45.9461 119.202 72.014 119.202C98.0818 119.202 119.214 98.0698 119.214 72.002C119.214 46.7397 99.3676 26.1127 74.4158 24.8621C74.4134 24.8619 74.4109 24.8618 74.4085 24.8617V20.2713C74.4085 17.6158 71.3607 16.1158 69.2565 17.7356L56.1025 27.8616Z" fill="white"/>
</svg>
