<?xml version="1.0" encoding="UTF-8"?>
<svg width="90" height="90" viewBox="0 0 90 90" fill="none" xmlns="http://www.w3.org/2000/svg">
<g filter="url(#filter0_d_427_35485)">
<path d="M24 34.9981C24 33.8935 24.8954 32.9981 26 32.9981H35.2701C35.7415 32.9981 36.1978 32.8316 36.5584 32.5279L51.7118 19.7671C53.0125 18.6718 55.0001 19.5964 55.0001 21.2969V68.6993C55.0001 70.3998 53.0125 71.3244 51.7118 70.2291L36.5584 57.4683C36.1978 57.1647 35.7415 56.9981 35.2701 56.9981H26C24.8954 56.9981 24 56.1027 24 54.9981V34.9981Z" stroke="white" stroke-width="7.00002"/>
<path fill-rule="evenodd" clip-rule="evenodd" d="M65.1624 33.8378C64.6302 34.37 64.3641 34.6361 64.2186 34.9287C64.0803 35.2068 64.0194 35.4497 64.0103 35.7601C64.0006 36.0868 64.123 36.4906 64.3679 37.2982C65.1067 39.735 65.504 42.3203 65.504 44.9984C65.504 47.6774 65.1064 50.2635 64.3671 52.7011C64.1222 53.5088 63.9997 53.9126 64.0093 54.2393C64.0185 54.5498 64.0793 54.7927 64.2176 55.0708C64.3631 55.3635 64.6292 55.6296 65.1615 56.1618L65.8394 56.8397C66.8717 57.872 67.3879 58.3882 68.005 58.4991C68.5075 58.5894 69.1288 58.4458 69.5407 58.144C70.0465 57.7735 70.2623 57.1455 70.6938 55.8894C71.8671 52.4749 72.504 48.811 72.504 44.9984C72.504 41.1869 71.8675 37.524 70.6949 34.1104C70.2634 32.8542 70.0476 32.2261 69.5419 31.8555C69.1299 31.5537 68.5087 31.41 68.0061 31.5004C67.389 31.6112 66.8728 32.1274 65.8404 33.1598L65.1624 33.8378Z" fill="white"/>
</g>
<defs>
<filter id="filter0_d_427_35485" x="-8.00002" y="-8.00002" width="106" height="106" filterUnits="userSpaceOnUse" color-interpolation-filters="sRGB">
<feFlood flood-opacity="0" result="BackgroundImageFix"/>
<feColorMatrix in="SourceAlpha" type="matrix" values="0 0 0 0 0 0 0 0 0 0 0 0 0 0 0 0 0 0 127 0" result="hardAlpha"/>
<feOffset/>
<feGaussianBlur stdDeviation="4.00001"/>
<feColorMatrix type="matrix" values="0 0 0 0 0 0 0 0 0 0 0 0 0 0 0 0 0 0 0.25 0"/>
<feBlend mode="normal" in2="BackgroundImageFix" result="effect1_dropShadow_427_35485"/>
<feBlend mode="normal" in="SourceGraphic" in2="effect1_dropShadow_427_35485" result="shape"/>
</filter>
</defs>
</svg>

